# xmcd
#
# Track frame offsets:
#	150
#	22160
#	38737
#	55620
#	78312
#	92924
#	115561
#	131539
#	146945
#	167255
#	185294
#	198402
#	208263
#
# Disc length: 2999 seconds
#
# Revision: 0
# Processed by: cddbd v1.5.2PL0 Copyright (c) Steve Scherf et al.
# Submitted via: dBpowerAMP V4.0
#
DISCID=ae0bb50d
DTITLE=韩磊 - 帝王之声
DYEAR=2005
DGENRE=Pop
TTITLE0=最后的倾诉
TTITLE1=等待（韩磊）
TTITLE2=钱百年后谁还记得谁
TTITLE3=心灵睡过的地方
TTITLE4=向天再借五百年
TTITLE5=千古英雄浪淘沙
TTITLE6=百战英雄
TTITLE7=浩浩乾坤
TTITLE8=你是我的房子
TTITLE9=风雨人生
TTITLE10=等待（姚贝娜）
TTITLE11=二百个春秋五千年的戏
TTITLE12=走四方
EXTD=帝王之声
EXTT0=
EXTT1=
EXTT2=
EXTT3=
EXTT4=
EXTT5=
EXTT6=
EXTT7=
EXTT8=
EXTT9=
EXTT10=
EXTT11=
EXTT12=
PLAYORDER=
